<svg xmlns="http://www.w3.org/2000/svg" xmlns:xlink="http://www.w3.org/1999/xlink" width="1209" zoomAndPan="magnify" viewBox="0 0 906.75 510.000002" height="680" preserveAspectRatio="xMidYMid meet" version="1.0"><defs><g/><clipPath id="9f0d0c87e2"><path d="M 232.289062 132 L 436.855469 132 L 436.855469 358 L 232.289062 358 Z M 232.289062 132 " clip-rule="nonzero"/></clipPath><clipPath id="d5ce653e35"><path d="M 319.46875 268.460938 L 384.453125 268.460938 L 375.742188 178.660156 Z M 390.523438 328.863281 L 387.46875 301.53125 L 299.03125 301.53125 L 281.191406 329.441406 C 274.214844 340.34375 268.765625 347.691406 264.882812 351.488281 C 261.003906 355.289062 255.757812 357.1875 249.277344 357.1875 C 243.746094 357.1875 239.367188 355.164062 236.230469 351.117188 C 233.09375 347.074219 232.183594 342.449219 233.546875 337.328125 L 237.511719 328.121094 C 239.328125 324.941406 242.132812 320.566406 245.933594 314.910156 L 339.367188 173.621094 C 342.050781 169.574219 345.273438 164.703125 348.988281 159.003906 C 352.703125 153.308594 356.378906 148.601562 359.929688 144.84375 L 372.316406 135.71875 C 377.023438 133.40625 382.390625 132.25 388.460938 132.25 C 394.609375 132.25 399.402344 133.40625 402.867188 135.71875 C 406.335938 138.03125 408.855469 141.046875 410.382812 144.71875 L 413.605469 156.488281 C 414.222656 160.699219 414.925781 166.3125 415.710938 173.332031 L 434.910156 313.710938 C 436.519531 324.40625 436.640625 332.167969 435.320312 337 C 433.957031 342.035156 430.65625 346.699219 425.289062 350.871094 C 419.921875 355.039062 414.304688 357.1875 408.359375 357.1875 L 399.9375 355.328125 C 397.789062 354.089844 396.179688 352.398438 395.066406 350.292969 C 393.949219 348.1875 393.042969 344.925781 392.257812 340.507812 L 390.398438 328.863281 " clip-rule="nonzero"/></clipPath><clipPath id="064fbb704d"><path d="M 470 132 L 683.652344 132 L 683.652344 358 L 470 358 Z M 470 132 " clip-rule="nonzero"/></clipPath><clipPath id="aca30a9f75"><path d="M 659.515625 284.769531 C 657.65625 291.664062 653.941406 299.179688 648.367188 307.230469 C 642.792969 315.28125 635.320312 323.207031 625.90625 330.96875 C 616.492188 338.730469 605.46875 345.050781 592.792969 349.921875 C 580.117188 354.753906 566.203125 357.1875 551.09375 357.1875 C 539.613281 357.1875 529.457031 356.113281 520.664062 353.925781 C 511.867188 351.738281 504.230469 348.351562 497.789062 343.726562 C 491.347656 339.105469 485.941406 333.074219 481.523438 325.5625 C 477.601562 318.75 474.75 311.109375 472.976562 302.648438 C 471.160156 294.183594 470.539062 285.140625 471.078125 275.5625 C 471.613281 265.984375 473.347656 255.785156 476.238281 245.007812 C 480.945312 227.503906 487.675781 211.8125 496.46875 197.980469 C 505.261719 184.148438 515.75 172.257812 527.890625 162.433594 C 540.027344 152.605469 553.199219 145.089844 567.320312 139.972656 C 581.4375 134.851562 595.765625 132.25 610.21875 132.25 C 627.804688 132.25 642.585938 135.761719 654.4375 142.820312 C 666.285156 149.882812 674.542969 158.511719 679.042969 168.832031 C 683.542969 179.152344 684.660156 188.9375 682.183594 198.148438 C 680.820312 203.183594 677.886719 207.644531 673.265625 211.484375 C 668.640625 215.324219 663.851562 217.261719 658.8125 217.261719 C 653.15625 217.261719 649.316406 215.941406 647.167969 213.257812 C 645.023438 210.574219 643.164062 205.992188 641.429688 199.46875 C 638.582031 188.691406 634 180.597656 627.683594 175.273438 C 621.363281 169.945312 612.488281 167.261719 601.09375 167.261719 C 582.96875 167.261719 566.742188 174.160156 552.332031 187.867188 C 537.921875 201.574219 527.3125 221.144531 520.5 246.496094 C 515.957031 263.421875 514.59375 277.503906 516.285156 288.734375 C 517.980469 299.960938 522.519531 308.34375 529.746094 313.875 C 536.972656 319.410156 546.425781 322.175781 558.070312 322.175781 C 570.746094 322.175781 582.265625 319.039062 592.710938 312.761719 C 603.15625 306.484375 612.199219 297.238281 619.917969 285.097656 C 623.347656 279.402344 626.898438 274.695312 630.65625 271.101562 C 634.410156 267.511719 639.324219 265.652344 645.4375 265.652344 C 650.679688 265.652344 654.726562 267.511719 657.492188 271.144531 C 660.257812 274.777344 660.917969 279.402344 659.472656 284.808594 " clip-rule="nonzero"/></clipPath><clipPath id="9849754c0a"><path d="M 686 135 L 900 135 L 900 354 L 686 354 Z M 686 135 " clip-rule="nonzero"/></clipPath><clipPath id="8b8ba910eb"><path d="M 873.261719 169.90625 L 773.964844 169.90625 L 759.636719 223.332031 L 851.050781 223.332031 C 857.78125 223.332031 862.402344 224.820312 864.921875 227.875 C 867.441406 230.929688 868.019531 234.894531 866.699219 239.804688 C 865.375 244.71875 862.691406 248.765625 858.5625 251.902344 C 854.433594 255.042969 848.984375 256.570312 842.171875 256.570312 L 750.761719 256.570312 L 734.203125 318.460938 L 836.886719 318.460938 C 843.78125 318.460938 848.574219 320.070312 851.257812 323.289062 C 853.941406 326.511719 854.519531 330.761719 853.074219 336.132812 C 851.710938 341.292969 848.820312 345.460938 844.445312 348.683594 C 840.066406 351.902344 834.410156 353.511719 827.515625 353.511719 L 707.78125 353.511719 C 698.160156 353.511719 691.84375 351.367188 688.789062 347.113281 C 685.734375 342.859375 685.484375 336.007812 688.003906 326.46875 L 731.808594 162.929688 C 733.503906 156.570312 735.816406 151.410156 738.789062 147.402344 C 741.761719 143.398438 745.476562 140.46875 749.976562 138.652344 C 754.476562 136.835938 759.84375 135.882812 766.078125 135.882812 L 882.347656 135.882812 C 889.363281 135.882812 894.15625 137.453125 896.753906 140.550781 C 899.355469 143.648438 899.933594 147.734375 898.570312 152.8125 C 897.210938 157.933594 894.402344 162.101562 890.148438 165.199219 C 885.898438 168.296875 880.28125 169.863281 873.222656 169.863281 " clip-rule="nonzero"/></clipPath><clipPath id="5e2c450162"><path d="M 159 100.683594 L 410.460938 100.683594 L 410.460938 265 L 159 265 Z M 159 100.683594 " clip-rule="nonzero"/></clipPath><clipPath id="bec98f85b1"><path d="M 320.539062 121.929688 C 348.039062 100.582031 382.636719 88.609375 410.425781 120.113281 C 386.105469 101.574219 351.300781 122.21875 325 146.660156 C 302.664062 167.386719 286.726562 193.109375 266.496094 215.652344 C 235.695312 250.003906 197.253906 278.824219 159.023438 257.066406 C 191.96875 265.320312 224.382812 235.59375 251.300781 202.894531 C 273.96875 175.355469 291.96875 144.140625 320.539062 121.96875 " clip-rule="nonzero"/></clipPath><clipPath id="12db5f0118"><path d="M 7 60 L 413 60 L 413 270 L 7 270 Z M 7 60 " clip-rule="nonzero"/></clipPath><clipPath id="11e9e740af"><path d="M 412.324219 103.886719 C 335.527344 28.121094 258.195312 152.8125 208.898438 203.679688 C 140.484375 274.15625 51.382812 310.449219 7.453125 196.867188 C 54.933594 263.175781 129.996094 227.75 189.453125 166.480469 C 239.988281 114.414062 319.136719 -2.511719 412.324219 103.925781 " clip-rule="nonzero"/></clipPath></defs><g clip-path="url(#9f0d0c87e2)"><g clip-path="url(#d5ce653e35)"><path fill="#243d81" d="M -13.191406 39.972656 L 919.894531 39.972656 L 919.894531 377.835938 L -13.191406 377.835938 Z M -13.191406 39.972656 " fill-opacity="1" fill-rule="nonzero"/></g></g><g clip-path="url(#064fbb704d)"><g clip-path="url(#aca30a9f75)"><path fill="#243d81" d="M -13.191406 39.972656 L 919.894531 39.972656 L 919.894531 377.835938 L -13.191406 377.835938 Z M -13.191406 39.972656 " fill-opacity="1" fill-rule="nonzero"/></g></g><g clip-path="url(#9849754c0a)"><g clip-path="url(#8b8ba910eb)"><path fill="#243d81" d="M -13.191406 39.972656 L 919.894531 39.972656 L 919.894531 377.835938 L -13.191406 377.835938 Z M -13.191406 39.972656 " fill-opacity="1" fill-rule="nonzero"/></g></g><g clip-path="url(#5e2c450162)"><g clip-path="url(#bec98f85b1)"><path fill="#089bd7" d="M -13.191406 39.972656 L 919.894531 39.972656 L 919.894531 377.835938 L -13.191406 377.835938 Z M -13.191406 39.972656 " fill-opacity="1" fill-rule="nonzero"/></g></g><g clip-path="url(#12db5f0118)"><g clip-path="url(#11e9e740af)"><path fill="#243d81" d="M -13.191406 39.972656 L 919.894531 39.972656 L 919.894531 377.835938 L -13.191406 377.835938 Z M -13.191406 39.972656 " fill-opacity="1" fill-rule="nonzero"/></g></g><g fill="#089bd7" fill-opacity="1"><g transform="translate(233.339385, 452.15943)"><g><path d="M 16.71875 0 L 8.671875 0 L 8.671875 -63.859375 L 44.359375 -63.859375 L 44.359375 -56.796875 L 16.71875 -56.796875 L 16.71875 -34.171875 L 42.65625 -34.171875 L 42.65625 -27.09375 L 16.71875 -27.09375 Z M 16.71875 0 "/></g></g></g><g fill="#089bd7" fill-opacity="1"><g transform="translate(288.510895, 452.15943)"><g><path d="M 47.671875 -47.9375 L 47.671875 0 L 41.234375 0 L 40.0625 -6.34375 L 39.703125 -6.34375 C 38.160156 -3.84375 36.015625 -2.007812 33.265625 -0.84375 C 30.523438 0.3125 27.601562 0.890625 24.5 0.890625 C 18.71875 0.890625 14.363281 -0.492188 11.4375 -3.265625 C 8.519531 -6.035156 7.0625 -10.460938 7.0625 -16.546875 L 7.0625 -47.9375 L 15.03125 -47.9375 L 15.03125 -17.078125 C 15.03125 -9.453125 18.578125 -5.640625 25.671875 -5.640625 C 30.972656 -5.640625 34.648438 -7.128906 36.703125 -10.109375 C 38.765625 -13.085938 39.796875 -17.378906 39.796875 -22.984375 L 39.796875 -47.9375 Z M 47.671875 -47.9375 "/></g></g></g><g fill="#089bd7" fill-opacity="1"><g transform="translate(352.534423, 452.15943)"><g><path d="M 23.609375 -5.546875 C 24.804688 -5.546875 26.03125 -5.632812 27.28125 -5.8125 C 28.53125 -5.988281 29.539062 -6.226562 30.3125 -6.53125 L 30.3125 -0.53125 C 29.476562 -0.113281 28.285156 0.222656 26.734375 0.484375 C 25.191406 0.753906 23.703125 0.890625 22.265625 0.890625 C 19.765625 0.890625 17.453125 0.457031 15.328125 -0.40625 C 13.210938 -1.269531 11.5 -2.773438 10.1875 -4.921875 C 8.882812 -7.066406 8.234375 -10.078125 8.234375 -13.953125 L 8.234375 -41.859375 L 1.4375 -41.859375 L 1.4375 -45.609375 L 8.3125 -48.75 L 11.453125 -58.9375 L 16.09375 -58.9375 L 16.09375 -47.9375 L 29.96875 -47.9375 L 29.96875 -41.859375 L 16.09375 -41.859375 L 16.09375 -14.125 C 16.09375 -11.207031 16.789062 -9.046875 18.1875 -7.640625 C 19.59375 -6.242188 21.398438 -5.546875 23.609375 -5.546875 Z M 23.609375 -5.546875 "/></g></g></g><g fill="#089bd7" fill-opacity="1"><g transform="translate(393.578417, 452.15943)"><g><path d="M 47.671875 -47.9375 L 47.671875 0 L 41.234375 0 L 40.0625 -6.34375 L 39.703125 -6.34375 C 38.160156 -3.84375 36.015625 -2.007812 33.265625 -0.84375 C 30.523438 0.3125 27.601562 0.890625 24.5 0.890625 C 18.71875 0.890625 14.363281 -0.492188 11.4375 -3.265625 C 8.519531 -6.035156 7.0625 -10.460938 7.0625 -16.546875 L 7.0625 -47.9375 L 15.03125 -47.9375 L 15.03125 -17.078125 C 15.03125 -9.453125 18.578125 -5.640625 25.671875 -5.640625 C 30.972656 -5.640625 34.648438 -7.128906 36.703125 -10.109375 C 38.765625 -13.085938 39.796875 -17.378906 39.796875 -22.984375 L 39.796875 -47.9375 Z M 47.671875 -47.9375 "/></g></g></g><g fill="#089bd7" fill-opacity="1"><g transform="translate(457.601939, 452.15943)"><g><path d="M 29.96875 -48.828125 C 30.851562 -48.828125 31.800781 -48.78125 32.8125 -48.6875 C 33.832031 -48.601562 34.757812 -48.472656 35.59375 -48.296875 L 34.609375 -41.046875 C 33.835938 -41.222656 32.972656 -41.367188 32.015625 -41.484375 C 31.066406 -41.609375 30.203125 -41.671875 29.421875 -41.671875 C 26.984375 -41.671875 24.6875 -41 22.53125 -39.65625 C 20.382812 -38.320312 18.671875 -36.445312 17.390625 -34.03125 C 16.109375 -31.613281 15.46875 -28.796875 15.46875 -25.578125 L 15.46875 0 L 7.609375 0 L 7.609375 -47.9375 L 14.046875 -47.9375 L 14.9375 -39.171875 L 15.296875 -39.171875 C 16.785156 -41.796875 18.765625 -44.0625 21.234375 -45.96875 C 23.710938 -47.875 26.625 -48.828125 29.96875 -48.828125 Z M 29.96875 -48.828125 "/></g></g></g><g fill="#089bd7" fill-opacity="1"><g transform="translate(503.295449, 452.15943)"><g><path d="M 26.109375 -48.828125 C 30.171875 -48.828125 33.691406 -47.929688 36.671875 -46.140625 C 39.648438 -44.359375 41.925781 -41.84375 43.5 -38.59375 C 45.082031 -35.34375 45.875 -31.539062 45.875 -27.1875 L 45.875 -22.453125 L 13.0625 -22.453125 C 13.175781 -17.023438 14.5625 -12.894531 17.21875 -10.0625 C 19.875 -7.226562 23.585938 -5.8125 28.359375 -5.8125 C 31.390625 -5.8125 34.082031 -6.09375 36.4375 -6.65625 C 38.800781 -7.226562 41.234375 -8.050781 43.734375 -9.125 L 43.734375 -2.234375 C 41.285156 -1.160156 38.867188 -0.375 36.484375 0.125 C 34.097656 0.632812 31.269531 0.890625 28 0.890625 C 23.40625 0.890625 19.378906 -0.03125 15.921875 -1.875 C 12.460938 -3.726562 9.765625 -6.472656 7.828125 -10.109375 C 5.890625 -13.742188 4.921875 -18.242188 4.921875 -23.609375 C 4.921875 -28.859375 5.800781 -33.359375 7.5625 -37.109375 C 9.320312 -40.867188 11.796875 -43.757812 14.984375 -45.78125 C 18.171875 -47.8125 21.878906 -48.828125 26.109375 -48.828125 Z M 26.03125 -42.390625 C 22.269531 -42.390625 19.300781 -41.179688 17.125 -38.765625 C 14.945312 -36.359375 13.648438 -33.003906 13.234375 -28.703125 L 37.65625 -28.703125 C 37.59375 -32.765625 36.632812 -36.0625 34.78125 -38.59375 C 32.9375 -41.125 30.019531 -42.390625 26.03125 -42.390625 Z M 26.03125 -42.390625 "/></g></g></g><g fill="#000000" fill-opacity="1"><g transform="translate(562.498087, 452.15943)"><g/></g></g><g fill="#243d81" fill-opacity="1"><g transform="translate(594.528524, 452.15943)"><g><path d="M 36.40625 -33.71875 L 58.484375 -33.71875 L 58.484375 -2.421875 C 55.035156 -1.285156 51.550781 -0.453125 48.03125 0.078125 C 44.507812 0.617188 40.515625 0.890625 36.046875 0.890625 C 29.421875 0.890625 23.84375 -0.429688 19.3125 -3.078125 C 14.78125 -5.734375 11.335938 -9.519531 8.984375 -14.4375 C 6.628906 -19.363281 5.453125 -25.191406 5.453125 -31.921875 C 5.453125 -38.546875 6.75 -44.316406 9.34375 -49.234375 C 11.9375 -54.148438 15.707031 -57.960938 20.65625 -60.671875 C 25.601562 -63.390625 31.566406 -64.75 38.546875 -64.75 C 42.117188 -64.75 45.5 -64.421875 48.6875 -63.765625 C 51.882812 -63.109375 54.851562 -62.1875 57.59375 -61 L 54.5625 -54.015625 C 52.289062 -54.972656 49.738281 -55.820312 46.90625 -56.5625 C 44.070312 -57.3125 41.132812 -57.6875 38.09375 -57.6875 C 30.46875 -57.6875 24.519531 -55.375 20.25 -50.75 C 15.988281 -46.132812 13.859375 -39.859375 13.859375 -31.921875 C 13.859375 -26.859375 14.675781 -22.375 16.3125 -18.46875 C 17.957031 -14.5625 20.535156 -11.519531 24.046875 -9.34375 C 27.566406 -7.164062 32.191406 -6.078125 37.921875 -6.078125 C 40.722656 -6.078125 43.109375 -6.222656 45.078125 -6.515625 C 47.046875 -6.816406 48.832031 -7.179688 50.4375 -7.609375 L 50.4375 -26.5625 L 36.40625 -26.5625 Z M 36.40625 -33.71875 "/></g></g></g><g fill="#243d81" fill-opacity="1"><g transform="translate(668.387681, 452.15943)"><g><path d="M 29.96875 -48.828125 C 30.851562 -48.828125 31.800781 -48.78125 32.8125 -48.6875 C 33.832031 -48.601562 34.757812 -48.472656 35.59375 -48.296875 L 34.609375 -41.046875 C 33.835938 -41.222656 32.972656 -41.367188 32.015625 -41.484375 C 31.066406 -41.609375 30.203125 -41.671875 29.421875 -41.671875 C 26.984375 -41.671875 24.6875 -41 22.53125 -39.65625 C 20.382812 -38.320312 18.671875 -36.445312 17.390625 -34.03125 C 16.109375 -31.613281 15.46875 -28.796875 15.46875 -25.578125 L 15.46875 0 L 7.609375 0 L 7.609375 -47.9375 L 14.046875 -47.9375 L 14.9375 -39.171875 L 15.296875 -39.171875 C 16.785156 -41.796875 18.765625 -44.0625 21.234375 -45.96875 C 23.710938 -47.875 26.625 -48.828125 29.96875 -48.828125 Z M 29.96875 -48.828125 "/></g></g></g><g fill="#243d81" fill-opacity="1"><g transform="translate(714.081196, 452.15943)"><g><path d="M 49.28125 -24.0625 C 49.28125 -16.125 47.265625 -9.976562 43.234375 -5.625 C 39.210938 -1.28125 33.773438 0.890625 26.921875 0.890625 C 22.691406 0.890625 18.921875 -0.078125 15.609375 -2.015625 C 12.296875 -3.953125 9.6875 -6.78125 7.78125 -10.5 C 5.875 -14.226562 4.921875 -18.75 4.921875 -24.0625 C 4.921875 -31.988281 6.898438 -38.097656 10.859375 -42.390625 C 14.828125 -46.679688 20.269531 -48.828125 27.1875 -48.828125 C 31.476562 -48.828125 35.289062 -47.859375 38.625 -45.921875 C 41.96875 -43.984375 44.578125 -41.179688 46.453125 -37.515625 C 48.335938 -33.847656 49.28125 -29.363281 49.28125 -24.0625 Z M 13.0625 -24.0625 C 13.0625 -18.394531 14.175781 -13.90625 16.40625 -10.59375 C 18.644531 -7.289062 22.207031 -5.640625 27.09375 -5.640625 C 31.925781 -5.640625 35.472656 -7.289062 37.734375 -10.59375 C 40.003906 -13.90625 41.140625 -18.394531 41.140625 -24.0625 C 41.140625 -29.726562 40.003906 -34.171875 37.734375 -37.390625 C 35.472656 -40.609375 31.898438 -42.21875 27.015625 -42.21875 C 22.117188 -42.21875 18.566406 -40.609375 16.359375 -37.390625 C 14.160156 -34.171875 13.0625 -29.726562 13.0625 -24.0625 Z M 13.0625 -24.0625 "/></g></g></g><g fill="#243d81" fill-opacity="1"><g transform="translate(776.942324, 452.15943)"><g><path d="M 47.671875 -47.9375 L 47.671875 0 L 41.234375 0 L 40.0625 -6.34375 L 39.703125 -6.34375 C 38.160156 -3.84375 36.015625 -2.007812 33.265625 -0.84375 C 30.523438 0.3125 27.601562 0.890625 24.5 0.890625 C 18.71875 0.890625 14.363281 -0.492188 11.4375 -3.265625 C 8.519531 -6.035156 7.0625 -10.460938 7.0625 -16.546875 L 7.0625 -47.9375 L 15.03125 -47.9375 L 15.03125 -17.078125 C 15.03125 -9.453125 18.578125 -5.640625 25.671875 -5.640625 C 30.972656 -5.640625 34.648438 -7.128906 36.703125 -10.109375 C 38.765625 -13.085938 39.796875 -17.378906 39.796875 -22.984375 L 39.796875 -47.9375 Z M 47.671875 -47.9375 "/></g></g></g><g fill="#243d81" fill-opacity="1"><g transform="translate(840.965846, 452.15943)"><g><path d="M 30.40625 -48.828125 C 36.3125 -48.828125 41.066406 -46.769531 44.671875 -42.65625 C 48.273438 -38.539062 50.078125 -32.34375 50.078125 -24.0625 C 50.078125 -15.894531 48.273438 -9.691406 44.671875 -5.453125 C 41.066406 -1.222656 36.28125 0.890625 30.3125 0.890625 C 26.625 0.890625 23.570312 0.207031 21.15625 -1.15625 C 18.738281 -2.53125 16.84375 -4.171875 15.46875 -6.078125 L 14.9375 -6.078125 C 15 -5.066406 15.101562 -3.785156 15.25 -2.234375 C 15.394531 -0.679688 15.46875 0.65625 15.46875 1.78125 L 15.46875 21.46875 L 7.609375 21.46875 L 7.609375 -47.9375 L 14.046875 -47.9375 L 15.109375 -41.40625 L 15.46875 -41.40625 C 16.90625 -43.5 18.785156 -45.257812 21.109375 -46.6875 C 23.429688 -48.113281 26.53125 -48.828125 30.40625 -48.828125 Z M 28.984375 -42.21875 C 24.085938 -42.21875 20.625 -40.84375 18.59375 -38.09375 C 16.570312 -35.351562 15.53125 -31.179688 15.46875 -25.578125 L 15.46875 -24.0625 C 15.46875 -18.15625 16.4375 -13.609375 18.375 -10.421875 C 20.3125 -7.234375 23.90625 -5.640625 29.15625 -5.640625 C 32.019531 -5.640625 34.40625 -6.425781 36.3125 -8 C 38.21875 -9.582031 39.632812 -11.773438 40.5625 -14.578125 C 41.488281 -17.378906 41.953125 -20.566406 41.953125 -24.140625 C 41.953125 -29.628906 40.890625 -34.015625 38.765625 -37.296875 C 36.648438 -40.578125 33.390625 -42.21875 28.984375 -42.21875 Z M 28.984375 -42.21875 "/></g></g></g></svg>